<svg id="visual" viewBox="0 0 3840 2160" width="3840" height="2160" xmlns="http://www.w3.org/2000/svg" xmlns:xlink="http://www.w3.org/1999/xlink" version="1.1"><rect x="0" y="0" width="3840" height="2160" fill="#001220"></rect><defs><linearGradient id="grad1_0" x1="43.8%" y1="0%" x2="100%" y2="100%"><stop offset="14.444444444444446%" stop-color="#001220" stop-opacity="1"></stop><stop offset="85.55555555555554%" stop-color="#001220" stop-opacity="1"></stop></linearGradient></defs><defs><linearGradient id="grad2_0" x1="0%" y1="0%" x2="56.3%" y2="100%"><stop offset="14.444444444444446%" stop-color="#001220" stop-opacity="1"></stop><stop offset="85.55555555555554%" stop-color="#001220" stop-opacity="1"></stop></linearGradient></defs><g transform="translate(3840, 0)"><path d="M0 1620C-162.5 1487.3 -325 1354.6 -538.1 1299C-751.1 1243.4 -1014.7 1264.9 -1145.5 1145.5C-1276.3 1026.1 -1274.4 765.8 -1331.3 551.4C-1388.3 337 -1504.1 168.5 -1620 0L0 0Z" fill="#3ca9fa"></path></g><g transform="translate(0, 2160)"><path d="M0 -1620C207.2 -1595.8 414.5 -1571.6 619.9 -1496.7C825.4 -1421.7 1029.1 -1296.1 1118.6 -1118.6C1208.2 -941.2 1183.6 -712.1 1248.2 -517C1312.7 -321.9 1466.3 -161 1620 0L0 0Z" fill="#3ca9fa"></path></g></svg>

